<?xml version="1.0" encoding="UTF-8"?>
<svg version="1.1" xmlns="http://www.w3.org/2000/svg" width="32" height="32">
<path d="M0 0 C4.90387954 2.09920458 7.61906765 5.26566053 10 10 C10.88432544 14.97004605 11.02731229 19.88220735 8.79296875 24.48828125 C6.28632715 27.95950392 4.06722004 30.46284089 0 32 C-5.61977969 32.75300292 -11.2225571 33.10117915 -16.0625 29.8125 C-19.61554444 26.96463996 -21.75817463 23.61870494 -22.43359375 19.09765625 C-22.44699993 8.68105256 -22.44699993 8.68105256 -18 4 C-12.75787736 -0.9800165 -6.86380398 -1.06729392 0 0 Z " fill="#A01F23" transform="translate(22,0)"/>
<path d="M0 0 C0.57492187 0.21785156 1.14984375 0.43570313 1.7421875 0.66015625 C0.0921875 0.99015625 -1.5578125 1.32015625 -3.2578125 1.66015625 C1.78982566 9.28552757 1.78982566 9.28552757 8.2421875 15.66015625 C9.4796875 16.65015625 9.4796875 16.65015625 10.7421875 17.66015625 C10.7421875 18.65015625 10.7421875 19.64015625 10.7421875 20.66015625 C9.0625 21.4609375 9.0625 21.4609375 6.7421875 21.66015625 C4.234375 19.640625 4.234375 19.640625 1.6171875 16.84765625 C0.74835937 15.93371094 -0.12046875 15.01976562 -1.015625 14.078125 C-1.75554688 13.28019531 -2.49546875 12.48226563 -3.2578125 11.66015625 C-3.9178125 11.00015625 -4.5778125 10.34015625 -5.2578125 9.66015625 C-4.5153125 10.58828125 -4.5153125 10.58828125 -3.7578125 11.53515625 C-2.2578125 13.66015625 -2.2578125 13.66015625 -2.2578125 15.66015625 C-1.5978125 15.66015625 -0.9378125 15.66015625 -0.2578125 15.66015625 C-0.2578125 16.32015625 -0.2578125 16.98015625 -0.2578125 17.66015625 C0.7321875 17.99015625 1.7221875 18.32015625 2.7421875 18.66015625 C2.7421875 19.32015625 2.7421875 19.98015625 2.7421875 20.66015625 C4.0621875 21.32015625 5.3821875 21.98015625 6.7421875 22.66015625 C3.7421875 22.66015625 3.7421875 22.66015625 1.7421875 21.66015625 C1.4121875 22.65015625 1.0821875 23.64015625 0.7421875 24.66015625 C-3.59114583 20.32682292 -7.92447917 15.99348958 -12.2578125 11.66015625 C-11.20050758 6.10930542 -8.62315609 3.92208038 -4.328125 0.6640625 C-2.2578125 -0.33984375 -2.2578125 -0.33984375 0 0 Z " fill="#B75558" transform="translate(12.2578125,0.33984375)"/>
<path d="M0 0 C0.55945313 0.72058594 1.11890625 1.44117188 1.6953125 2.18359375 C6.99637451 8.66167122 12.81809498 14.65305749 20 19 C20 19.33 20 19.66 20 20 C17.93867858 20.10864945 15.87568679 20.18588321 13.8125 20.25 C12.08966797 20.31960937 12.08966797 20.31960937 10.33203125 20.390625 C5.49941657 19.82408166 3.25599016 17.47254018 0.1875 13.875 C-1.5537258 9.6594007 -1.43419578 5.50895614 -1 1 C-0.67 0.67 -0.34 0.34 0 0 Z " fill="#A01F23" transform="translate(1,11)"/>
<path d="M0 0 C4.33333333 4.33333333 8.66666667 8.66666667 13 13 C13.66 12.67 14.32 12.34 15 12 C16.75 11.1875 16.75 11.1875 19 11 C22.25 12.9375 22.25 12.9375 25 15 C22.44571543 19.25714095 20.50006671 21.85224089 16 24 C12.88671875 24.29296875 12.88671875 24.29296875 9.6875 24.1875 C8.08455078 24.14689453 8.08455078 24.14689453 6.44921875 24.10546875 C5.64097656 24.07066406 4.83273438 24.03585938 4 24 C4 23.67 4 23.34 4 23 C6.97 22.67 9.94 22.34 13 22 C12.175 21.4225 11.35 20.845 10.5 20.25 C9.675 19.5075 8.85 18.765 8 18 C8 16.68 8 15.36 8 14 C8.99 14 9.98 14 11 14 C10.175 13.38125 9.35 12.7625 8.5 12.125 C7.675 11.42375 6.85 10.7225 6 10 C6 9.34 6 8.68 6 8 C5.34 8 4.68 8 4 8 C0 2.58823529 0 2.58823529 0 0 Z " fill="#8F2B2D" transform="translate(6,8)"/>
<path d="M0 0 C3.3529984 1.17808052 5.7552529 2.19406612 8 5 C8.33 5.99 8.66 6.98 9 8 C8.67 8.66 8.34 9.32 8 10 C4.04 10 0.08 10 -4 10 C-4 9.67 -4 9.34 -4 9 C0.455 8.505 0.455 8.505 5 8 C4.175 7.4225 3.35 6.845 2.5 6.25 C1.675 5.5075 0.85 4.765 0 4 C0 2.68 0 1.36 0 0 Z " fill="#AD4144" transform="translate(14,22)"/>
<path d="M0 0 C1.8874413 3.7748826 2.34126378 7.85937232 3 12 C1.02 10.35 -0.96 8.7 -3 7 C-1.125 1.125 -1.125 1.125 0 0 Z " fill="#C07073" transform="translate(3,5)"/>
<path d="M0 0 C3.37503669 1.1858237 5.64722731 2.27573689 8 5 C6.35 5.66 4.7 6.32 3 7 C3 6.34 3 5.68 3 5 C2.34 4.34 1.68 3.68 1 3 C0.67 2.01 0.34 1.02 0 0 Z " fill="#BA6164" transform="translate(19,24)"/>
<path d="M0 0 C0.33 0.66 0.66 1.32 1 2 C1.99 2 2.98 2 4 2 C4 2.66 4 3.32 4 4 C3.195625 4.12375 2.39125 4.2475 1.5625 4.375 C0.2940625 4.684375 0.2940625 4.684375 -1 5 C-1.33 5.66 -1.66 6.32 -2 7 C-2.6875 5.1875 -2.6875 5.1875 -3 3 C-1.5625 1.25 -1.5625 1.25 0 0 Z " fill="#9F3335" transform="translate(6,4)"/>
<path d="M0 0 C0.53625 0.2475 1.0725 0.495 1.625 0.75 C-0.025 1.08 -1.675 1.41 -3.375 1.75 C-3.045 2.74 -2.715 3.73 -2.375 4.75 C-3.365 5.08 -4.355 5.41 -5.375 5.75 C-6.365 5.09 -7.355 4.43 -8.375 3.75 C-2.95961538 -0.31153846 -2.95961538 -0.31153846 0 0 Z " fill="#BA6265" transform="translate(12.375,0.25)"/>
<path d="M0 0 C4.75 0.75 4.75 0.75 7 3 C4.625 3.625 4.625 3.625 2 4 C1.34 3.34 0.68 2.68 0 2 C0 1.34 0 0.68 0 0 Z " fill="#AB3E42" transform="translate(21,19)"/>
</svg>
